<?xml version="1.0" encoding="iso-8859-1"?>
<!-- Uploaded to: SVG Repo, www.svgrepo.com, Generator: SVG Repo Mixer Tools -->
<svg version="1.1" id="Layer_1" xmlns="http://www.w3.org/2000/svg" xmlns:xlink="http://www.w3.org/1999/xlink" 
	 viewBox="0 0 512 512" xml:space="preserve">
<path style="fill:#AEB3BF;" d="M495.304,445.217h-77.913c-9.217,0-16.696-7.473-16.696-16.696V294.957
	c0-9.223,7.479-16.696,16.696-16.696h77.913c9.217,0,16.696,7.473,16.696,16.696v133.565
	C512,437.744,504.521,445.217,495.304,445.217z"/>
<path style="fill:#7CCC92;" d="M350.609,0h-66.783c-27.27,0-51.534,13.245-66.783,33.614C201.795,13.245,177.53,0,150.261,0H83.478
	c-9.239,0-16.696,7.457-16.696,16.696v66.783c0,46.08,37.398,83.478,83.478,83.478h133.565c46.08,0,83.478-37.398,83.478-83.478
	V16.696C367.304,7.457,359.848,0,350.609,0z"/>
<path style="fill:#34B772;" d="M367.304,16.696v66.783c0,46.08-37.398,83.478-83.478,83.478h-66.783V33.614
	C232.292,13.245,256.557,0,283.826,0h66.783C359.848,0,367.304,7.457,367.304,16.696z"/>
<path style="fill:#DDDD47;" d="M295.625,95.277l-61.886,61.885v71.012c0,9.238-7.456,16.696-16.696,16.696
	s-16.696-7.457-16.696-16.696v-71.012l-61.886-61.885c-6.567-6.456-6.567-17.141,0-23.597c6.568-6.567,17.03-6.567,23.598,0
	l54.984,54.984l54.983-54.984c6.568-6.567,17.03-6.567,23.598,0C302.191,78.136,302.191,88.821,295.625,95.277z"/>
<path style="fill:#C7D100;" d="M295.625,95.277l-61.886,61.885v71.012c0,9.238-7.456,16.696-16.696,16.696V126.664l54.983-54.984
	c6.568-6.567,17.03-6.567,23.598,0C302.191,78.136,302.191,88.821,295.625,95.277z"/>
<path style="fill:#DBE1F1;" d="M384,512H50.087C22.468,512,0,489.532,0,461.913V261.565c0-27.619,22.468-50.087,50.087-50.087H384
	c27.619,0,50.087,22.468,50.087,50.087v200.348C434.087,489.532,411.619,512,384,512z"/>
<path style="fill:#D0D5E5;" d="M384,211.478H217.043V512H384c27.619,0,50.087-22.468,50.087-50.087V261.565
	C434.087,233.946,411.619,211.478,384,211.478z"/>
<path style="fill:#7C84E8;" d="M350.609,445.217H83.478c-9.217,0-16.696-7.473-16.696-16.696V294.957
	c0-9.223,7.479-16.696,16.696-16.696h267.13c9.217,0,16.696,7.473,16.696,16.696v133.565
	C367.304,437.744,359.826,445.217,350.609,445.217z"/>
<path style="fill:#515BE0;" d="M350.609,278.261H217.043v166.957h133.565c9.217,0,16.696-7.473,16.696-16.696V294.957
	C367.304,285.734,359.826,278.261,350.609,278.261z"/>
<path style="fill:#9DF1FD;" d="M100.174,411.826h233.739V311.652H100.174V411.826z"/>
<rect x="217.043" y="311.652" style="fill:#87D7E4;" width="116.87" height="100.174"/>
<rect x="267.13" y="278.261" style="fill:#515BE0;" width="33.391" height="166.957"/>
<rect x="200.348" y="278.261" style="fill:#7C84E8;" width="33.391" height="166.957"/>
<rect x="217.043" y="278.261" style="fill:#515BE0;" width="16.696" height="166.957"/>
<rect x="133.565" y="278.261" style="fill:#7C84E8;" width="33.391" height="166.957"/>
</svg>